<svg width="100" height="100" viewBox="0 0 100 100" fill="none" xmlns="http://www.w3.org/2000/svg">
<path d="M11.1111 22.2222C14.058 22.2222 16.8841 21.0516 18.9679 18.9679C21.0516 16.8841 22.2222 14.058 22.2222 11.1111C22.2222 8.16426 21.0516 5.33811 18.9679 3.25437C16.8841 1.17063 14.058 0 11.1111 0C8.16426 0 5.33811 1.17063 3.25437 3.25437C1.17063 5.33811 0 8.16426 0 11.1111C0 14.058 1.17063 16.8841 3.25437 18.9679C5.33811 21.0516 8.16426 22.2222 11.1111 22.2222ZM50 22.2222C52.9468 22.2222 55.773 21.0516 57.8567 18.9679C59.9405 16.8841 61.1111 14.058 61.1111 11.1111C61.1111 8.16426 59.9405 5.33811 57.8567 3.25437C55.773 1.17063 52.9468 0 50 0C47.0531 0 44.227 1.17063 42.1433 3.25437C40.0595 5.33811 38.8889 8.16426 38.8889 11.1111C38.8889 14.058 40.0595 16.8841 42.1433 18.9679C44.227 21.0516 47.0531 22.2222 50 22.2222ZM88.8889 22.2222C91.8357 22.2222 94.6619 21.0516 96.7456 18.9679C98.8294 16.8841 100 14.058 100 11.1111C100 8.16426 98.8294 5.33811 96.7456 3.25437C94.6619 1.17063 91.8357 0 88.8889 0C85.942 0 83.1159 1.17063 81.0321 3.25437C78.9484 5.33811 77.7778 8.16426 77.7778 11.1111C77.7778 14.058 78.9484 16.8841 81.0321 18.9679C83.1159 21.0516 85.942 22.2222 88.8889 22.2222ZM11.1111 61.1111C14.058 61.1111 16.8841 59.9405 18.9679 57.8567C21.0516 55.773 22.2222 52.9468 22.2222 50C22.2222 47.0531 21.0516 44.227 18.9679 42.1433C16.8841 40.0595 14.058 38.8889 11.1111 38.8889C8.16426 38.8889 5.33811 40.0595 3.25437 42.1433C1.17063 44.227 0 47.0531 0 50C0 52.9468 1.17063 55.773 3.25437 57.8567C5.33811 59.9405 8.16426 61.1111 11.1111 61.1111ZM50 61.1111C52.9468 61.1111 55.773 59.9405 57.8567 57.8567C59.9405 55.773 61.1111 52.9468 61.1111 50C61.1111 47.0531 59.9405 44.227 57.8567 42.1433C55.773 40.0595 52.9468 38.8889 50 38.8889C47.0531 38.8889 44.227 40.0595 42.1433 42.1433C40.0595 44.227 38.8889 47.0531 38.8889 50C38.8889 52.9468 40.0595 55.773 42.1433 57.8567C44.227 59.9405 47.0531 61.1111 50 61.1111ZM88.8889 61.1111C91.8357 61.1111 94.6619 59.9405 96.7456 57.8567C98.8294 55.773 100 52.9468 100 50C100 47.0531 98.8294 44.227 96.7456 42.1433C94.6619 40.0595 91.8357 38.8889 88.8889 38.8889C85.942 38.8889 83.1159 40.0595 81.0321 42.1433C78.9484 44.227 77.7778 47.0531 77.7778 50C77.7778 52.9468 78.9484 55.773 81.0321 57.8567C83.1159 59.9405 85.942 61.1111 88.8889 61.1111ZM11.1111 100C14.058 100 16.8841 98.8294 18.9679 96.7456C21.0516 94.6619 22.2222 91.8357 22.2222 88.8889C22.2222 85.942 21.0516 83.1159 18.9679 81.0321C16.8841 78.9484 14.058 77.7778 11.1111 77.7778C8.16426 77.7778 5.33811 78.9484 3.25437 81.0321C1.17063 83.1159 0 85.942 0 88.8889C0 91.8357 1.17063 94.6619 3.25437 96.7456C5.33811 98.8294 8.16426 100 11.1111 100ZM50 100C52.9468 100 55.773 98.8294 57.8567 96.7456C59.9405 94.6619 61.1111 91.8357 61.1111 88.8889C61.1111 85.942 59.9405 83.1159 57.8567 81.0321C55.773 78.9484 52.9468 77.7778 50 77.7778C47.0531 77.7778 44.227 78.9484 42.1433 81.0321C40.0595 83.1159 38.8889 85.942 38.8889 88.8889C38.8889 91.8357 40.0595 94.6619 42.1433 96.7456C44.227 98.8294 47.0531 100 50 100ZM88.8889 100C91.8357 100 94.6619 98.8294 96.7456 96.7456C98.8294 94.6619 100 91.8357 100 88.8889C100 85.942 98.8294 83.1159 96.7456 81.0321C94.6619 78.9484 91.8357 77.7778 88.8889 77.7778C85.942 77.7778 83.1159 78.9484 81.0321 81.0321C78.9484 83.1159 77.7778 85.942 77.7778 88.8889C77.7778 91.8357 78.9484 94.6619 81.0321 96.7456C83.1159 98.8294 85.942 100 88.8889 100Z" fill="#FF7828"/>
</svg>
