<svg width="72" height="86" viewBox="0 0 72 86" fill="none" xmlns="http://www.w3.org/2000/svg">
<path fill-rule="evenodd" clip-rule="evenodd" d="M64.4278 32.5105C65.1682 36.2168 66.8725 39.6611 69.3679 42.4941C70.9193 44.8223 71.8181 47.526 71.9699 50.3221V51.1919C71.9931 54.9649 70.6536 58.6187 68.1989 61.4781C65.0877 64.8354 60.8664 66.9453 56.3201 67.4153C42.8881 69.1547 29.2888 69.1547 15.8568 67.4153C11.257 66.981 6.97627 64.8683 3.82718 61.4781C1.44945 58.5913 0.202597 54.9343 0.32011 51.1919V50.3221C0.467273 47.5365 1.33829 44.8379 2.84671 42.4941C5.35322 39.6584 7.08158 36.2181 7.8622 32.5105C7.97533 31.0734 7.97533 29.627 7.97533 28.1805C7.97533 26.734 7.97533 25.2875 8.08846 23.8505C9.52146 10.0474 22.7201 0.517578 35.9188 0.517578H36.2959C49.3437 0.517578 62.8063 10.0474 64.2016 23.8505C64.3147 25.2686 64.3147 26.7151 64.3147 28.1663C64.3147 29.6175 64.3147 31.0734 64.4278 32.5105ZM41.0469 73.2017C43.1433 73.2642 45.2015 73.7802 47.0806 74.7144H47.1937C48.7636 76.0071 49.0304 78.3145 47.7971 79.9331C45.5514 83.1766 41.9583 85.2216 38.0301 85.4922C33.9942 85.9779 29.93 84.8503 26.717 82.3534C25.0646 81.2098 23.9907 79.4012 23.7755 77.3994C23.7755 75.2817 25.7365 74.2984 27.5466 73.8824C29.6667 73.4317 31.8278 73.2036 33.9951 73.2017H41.0469Z" fill="#FFC107"/>
</svg>
