<svg width="73" height="86" viewBox="0 0 73 86" fill="none" xmlns="http://www.w3.org/2000/svg">
<path fill-rule="evenodd" clip-rule="evenodd" d="M65.0646 32.0281C65.8049 35.7344 67.5092 39.1786 70.0046 42.0117C71.5561 44.3399 72.4548 47.0436 72.6067 49.8397V50.7095C72.6299 54.4824 71.2903 58.1363 68.8356 60.9956C65.7244 64.353 61.5031 66.4629 56.9568 66.9328C43.5248 68.6723 29.9255 68.6723 16.4935 66.9328C11.8937 66.4986 7.61298 64.3858 4.4639 60.9956C2.08617 58.1088 0.839316 54.4519 0.956829 50.7095V49.8397C1.10399 47.0541 1.975 44.3555 3.48343 42.0117C5.98994 39.176 7.7183 35.7356 8.49892 32.0281C8.61205 30.591 8.61205 29.1445 8.61205 27.6981C8.61205 26.2516 8.61205 24.8051 8.72518 23.368C10.1582 9.56496 23.3568 0.0351562 36.5555 0.0351562H36.9326C49.9804 0.0351562 63.443 9.56496 64.8383 23.368C64.9514 24.7862 64.9514 26.2326 64.9514 27.6838C64.9514 29.1351 64.9514 30.591 65.0646 32.0281ZM41.6836 72.7193C43.7801 72.7818 45.8382 73.2978 47.7173 74.232H47.8304C49.4004 75.5247 49.6671 77.8321 48.4338 79.4507C46.1882 82.6941 42.5951 84.7392 38.6668 85.0097C34.6309 85.4955 30.5667 84.3679 27.3537 81.871C25.7013 80.7273 24.6274 78.9188 24.4123 76.917C24.4123 74.7992 26.3732 73.816 28.1833 73.4C30.3034 72.9493 32.4646 72.7212 34.6318 72.7193H41.6836Z" fill="#FF7828"/>
</svg>
