<svg width="81" height="86" viewBox="0 0 81 86" fill="none" xmlns="http://www.w3.org/2000/svg">
<path d="M28.7011 80.66V67.6518C28.7011 64.3311 31.3879 61.6392 34.7021 61.6392H46.8173C48.4088 61.6392 49.9352 62.2727 51.0606 63.4003C52.186 64.5278 52.8182 66.0572 52.8182 67.6518V80.66C52.8082 82.0406 53.3485 83.368 54.3193 84.3478C55.2901 85.3275 56.611 85.8785 57.9889 85.8785H66.2544C70.1147 85.8885 73.8203 84.3591 76.5535 81.6277C79.2867 78.8964 80.8228 75.1876 80.8227 71.3198V34.2614C80.8226 31.1371 79.4405 28.1735 77.0486 26.169L48.9308 3.66925C44.0397 -0.275731 37.0317 -0.148358 32.2866 3.97177L4.8105 26.169C2.30554 28.1144 0.808361 31.0868 0.734375 34.2614V71.282C0.734375 79.3434 7.25686 85.8785 15.3028 85.8785H23.3795C26.2414 85.8786 28.5672 83.5651 28.5879 80.6979L28.7011 80.66Z" fill="#FF7828"/>
</svg>
