<svg width="69" height="86" viewBox="0 0 69 86" fill="none" xmlns="http://www.w3.org/2000/svg">
<path fill-rule="evenodd" clip-rule="evenodd" d="M21.6036 0.504883H47.6112C59.0344 0.504883 68.2656 5.05691 68.3921 16.6284V81.2076C68.3921 81.9308 68.2234 82.6541 67.8862 83.2922C67.3383 84.3132 66.4109 85.079 65.2728 85.4193C64.1769 85.7597 62.9545 85.5895 61.9428 84.9939L34.6285 71.2102L7.27199 84.9939C6.64392 85.33 5.92313 85.5469 5.20655 85.5469C2.84605 85.5469 0.949219 83.59 0.949219 81.2076V16.6284C0.949219 5.05691 10.2226 0.504883 21.6036 0.504883ZM18.7362 32.9198H50.4765C52.289 32.9198 53.7643 31.4266 53.7643 29.559C53.7643 27.6871 52.289 26.1981 50.4765 26.1981H18.7362C16.9236 26.1981 15.4483 27.6871 15.4483 29.559C15.4483 31.4266 16.9236 32.9198 18.7362 32.9198Z" fill="#FF7828"/>
</svg>
