<svg width="69" height="86" viewBox="0 0 69 86" fill="none" xmlns="http://www.w3.org/2000/svg">
<path fill-rule="evenodd" clip-rule="evenodd" d="M56.8166 23.241C56.8166 35.9293 46.9063 46.2153 34.6814 46.2153C22.4564 46.2153 12.5461 35.9293 12.5461 23.241C12.5461 10.5526 22.4564 0.266602 34.6814 0.266602C46.9063 0.266602 56.8166 10.5526 56.8166 23.241ZM53.6804 59.1572C60.7184 60.5954 65.3132 62.9421 67.2824 66.727C68.7614 69.6809 68.7614 73.1974 67.2824 76.1514C65.3132 79.9363 60.9007 82.4343 53.6074 83.7212C50.3575 84.3826 47.0679 84.8126 43.7615 85.0081C40.6983 85.3487 37.6351 85.3487 34.5354 85.3487H28.956C27.7891 85.1973 26.6586 85.1216 25.5646 85.1216C22.2581 84.95 18.9677 84.5325 15.7186 83.8726C8.6806 82.51 4.08581 80.0877 2.11662 76.3028C1.35643 74.8366 0.955667 73.1988 0.949685 71.5338C0.93384 69.8587 1.32249 68.2061 2.08015 66.727C4.01288 62.9421 8.60767 60.4819 15.7186 59.1572C18.982 58.5107 22.2836 58.0934 25.6011 57.9082C31.6696 57.4146 37.7659 57.4146 43.8344 57.9082C47.139 58.1026 50.4279 58.5198 53.6804 59.1572Z" fill="#FF7828"/>
</svg>
