<svg width="68" height="87" viewBox="0 0 68 87" fill="none" xmlns="http://www.w3.org/2000/svg">
<path fill-rule="evenodd" clip-rule="evenodd" d="M20.9669 0.986328H46.9745C58.3976 0.986328 67.6289 5.53835 67.7553 17.1099V81.6891C67.7553 82.4123 67.5867 83.1355 67.2495 83.7736C66.7015 84.7947 65.7742 85.5604 64.6361 85.9008C63.5402 86.2411 62.3178 86.0709 61.3061 85.4753L33.9918 71.6916L6.63527 85.4753C6.00721 85.8114 5.28641 86.0284 4.56983 86.0284C2.20933 86.0284 0.3125 84.0714 0.3125 81.6891V17.1099C0.3125 5.53835 9.58589 0.986328 20.9669 0.986328ZM18.0994 33.4012H49.8397C51.6523 33.4012 53.1276 31.908 53.1276 30.0404C53.1276 28.1685 51.6523 26.6796 49.8397 26.6796H18.0994C16.2869 26.6796 14.8116 28.1685 14.8116 30.0404C14.8116 31.908 16.2869 33.4012 18.0994 33.4012Z" fill="#FFC107"/>
</svg>
