<svg width="81" height="86" viewBox="0 0 81 86" fill="none" xmlns="http://www.w3.org/2000/svg">
<path d="M28.0683 80.1415V67.1332C28.0683 63.8126 30.7551 61.1207 34.0693 61.1207H46.1845C47.776 61.1207 49.3024 61.7541 50.4278 62.8817C51.5532 64.0093 52.1854 65.5386 52.1854 67.1332V80.1415C52.1754 81.522 52.7157 82.8495 53.6865 83.8292C54.6572 84.809 55.9782 85.36 57.3561 85.3599H65.6215C69.4819 85.37 73.1875 83.8406 75.9207 81.1092C78.6539 78.3778 80.1899 74.669 80.1899 70.8013V33.7428C80.1898 30.6185 78.8076 27.6549 76.4157 25.6505L48.298 3.15069C43.4069 -0.794286 36.3989 -0.666912 31.6538 3.45321L4.17769 25.6505C1.67273 27.5958 0.175549 30.5682 0.101562 33.7428V70.7634C0.101563 78.8249 6.62405 85.3599 14.6699 85.3599H22.7467C25.6086 85.36 27.9344 83.0466 27.9551 80.1793L28.0683 80.1415Z" fill="#FFC107"/>
</svg>
