<svg width="68" height="86" viewBox="0 0 68 86" fill="none" xmlns="http://www.w3.org/2000/svg">
<path fill-rule="evenodd" clip-rule="evenodd" d="M56.1877 23.7224C56.1877 36.4108 46.2774 46.6967 34.0525 46.6967C21.8275 46.6967 11.9172 36.4108 11.9172 23.7224C11.9172 11.034 21.8275 0.748047 34.0525 0.748047C46.2774 0.748047 56.1877 11.034 56.1877 23.7224ZM53.0515 59.6386C60.0895 61.0769 64.6843 63.4235 66.6535 67.2084C68.1325 70.1624 68.1325 73.6789 66.6535 76.6328C64.6843 80.4177 60.2718 82.9158 52.9785 84.2026C49.7286 84.864 46.439 85.294 43.1325 85.4895C40.0694 85.8301 37.0062 85.8301 33.9065 85.8301H28.3271C27.1602 85.6787 26.0297 85.6031 24.9357 85.6031C21.6292 85.4314 18.3388 85.014 15.0897 84.354C8.05169 82.9915 3.4569 80.5691 1.48771 76.7842C0.727528 75.3181 0.326761 73.6802 0.320778 72.0153C0.304933 70.3401 0.69358 68.6876 1.45124 67.2084C3.38397 63.4235 7.97876 60.9633 15.0897 59.6386C18.3531 58.9921 21.6547 58.5749 24.9722 58.3896C31.0406 57.896 37.137 57.896 43.2055 58.3896C46.5101 58.584 49.799 59.0012 53.0515 59.6386Z" fill="#FFC107"/>
</svg>
